<svg width="378" height="112" viewBox="0 0 378 112" fill="none" xmlns="http://www.w3.org/2000/svg">
<path d="M8.83789 55.4531V91H4.12598V55.4531H8.83789ZM30.2979 55.4531L15.5273 72.0303L7.22656 80.6484L6.44531 75.6191L12.6953 68.7344L24.6338 55.4531H30.2979ZM25.7568 91L12.5977 73.666L15.4053 69.9307L31.3721 91H25.7568ZM48.6816 58.6025L36.9141 91H32.1045L45.6543 55.4531H48.7549L48.6816 58.6025ZM58.5449 91L46.7529 58.6025L46.6797 55.4531H49.7803L63.3789 91H58.5449ZM57.9346 77.8408V81.6982H37.9639V77.8408H57.9346ZM77.7588 91H70.3369L70.3857 87.167H77.7588C80.2979 87.167 82.4137 86.638 84.1064 85.5801C85.7992 84.5059 87.0687 83.0085 87.915 81.0879C88.7777 79.151 89.209 76.8887 89.209 74.3008V72.1279C89.209 70.0934 88.9648 68.2868 88.4766 66.708C87.9883 65.113 87.2721 63.7702 86.3281 62.6797C85.3841 61.5729 84.2285 60.7347 82.8613 60.165C81.5104 59.5954 79.9561 59.3105 78.1982 59.3105H70.1904V55.4531H78.1982C80.5257 55.4531 82.6497 55.8438 84.5703 56.625C86.4909 57.39 88.1429 58.5049 89.5264 59.9697C90.9261 61.4183 92.0003 63.1761 92.749 65.2432C93.4977 67.2939 93.8721 69.6051 93.8721 72.1768V74.3008C93.8721 76.8724 93.4977 79.1917 92.749 81.2588C92.0003 83.3096 90.918 85.0592 89.502 86.5078C88.1022 87.9564 86.4095 89.0713 84.4238 89.8525C82.4544 90.6175 80.2327 91 77.7588 91ZM72.8516 55.4531V91H68.1396V55.4531H72.8516ZM124.17 70.7363V74.5693H104.932V70.7363H124.17ZM105.664 55.4531V91H100.952V55.4531H105.664ZM128.271 55.4531V91H123.584V55.4531H128.271ZM150.244 58.6025L138.477 91H133.667L147.217 55.4531H150.317L150.244 58.6025ZM160.107 91L148.315 58.6025L148.242 55.4531H151.343L164.941 91H160.107ZM159.497 77.8408V81.6982H139.526V77.8408H159.497ZM171.191 55.4531H175.757L187.402 84.4326L199.023 55.4531H203.613L189.16 91H185.596L171.191 55.4531ZM169.702 55.4531H173.73L174.39 77.1328V91H169.702V55.4531ZM201.05 55.4531H205.078V91H200.391V77.1328L201.05 55.4531ZM226.318 75.3994H217.188L217.139 70.3701H224.805C226.156 70.3701 227.262 70.1992 228.125 69.8574C228.988 69.4993 229.631 68.9867 230.054 68.3193C230.493 67.6357 230.713 66.8057 230.713 65.8291C230.713 64.7223 230.501 63.8271 230.078 63.1436C229.671 62.46 229.028 61.9635 228.149 61.6543C227.287 61.3451 226.172 61.1904 224.805 61.1904H219.727V91H212.402V55.4531H224.805C226.872 55.4531 228.719 55.6484 230.347 56.0391C231.991 56.4297 233.382 57.0238 234.521 57.8213C235.661 58.6188 236.532 59.6279 237.134 60.8486C237.736 62.0531 238.037 63.4854 238.037 65.1455C238.037 66.6104 237.703 67.9613 237.036 69.1982C236.385 70.4352 235.352 71.4443 233.936 72.2256C232.536 73.0068 230.705 73.4382 228.442 73.5195L226.318 75.3994ZM226.001 91H215.186L218.042 85.2871H226.001C227.287 85.2871 228.337 85.0837 229.15 84.6768C229.964 84.2536 230.566 83.6839 230.957 82.9678C231.348 82.2516 231.543 81.4297 231.543 80.502C231.543 79.4603 231.364 78.557 231.006 77.792C230.664 77.027 230.111 76.4411 229.346 76.0342C228.581 75.611 227.572 75.3994 226.318 75.3994H219.263L219.312 70.3701H228.101L229.785 72.3477C231.95 72.3151 233.691 72.6976 235.01 73.4951C236.344 74.2764 237.313 75.2936 237.915 76.5469C238.534 77.8001 238.843 79.1429 238.843 80.5752C238.843 82.8538 238.346 84.7744 237.354 86.3369C236.361 87.8831 234.904 89.0469 232.983 89.8281C231.079 90.6094 228.752 91 226.001 91ZM258.862 62.2158L249.683 91H241.187L254.346 55.4531H259.717L258.862 62.2158ZM266.479 91L257.275 62.2158L256.323 55.4531H261.768L274.976 91H266.479ZM266.089 77.7676V83.9199H247.559V77.7676H266.089ZM278.174 55.4531H291.431C294.149 55.4531 296.484 55.86 298.438 56.6738C300.407 57.4876 301.921 58.6921 302.979 60.2871C304.036 61.8822 304.565 63.8434 304.565 66.1709C304.565 68.0752 304.24 69.7109 303.589 71.0781C302.954 72.429 302.051 73.5602 300.879 74.4717C299.723 75.3669 298.364 76.083 296.802 76.6201L294.482 77.8408H282.959L282.91 72.1279H291.479C292.765 72.1279 293.831 71.9001 294.678 71.4443C295.524 70.9886 296.159 70.3538 296.582 69.54C297.021 68.7262 297.241 67.7822 297.241 66.708C297.241 65.5687 297.03 64.584 296.606 63.7539C296.183 62.9238 295.54 62.2891 294.678 61.8496C293.815 61.4102 292.733 61.1904 291.431 61.1904H285.498V91H278.174V55.4531ZM298.047 91L289.941 75.1553L297.681 75.1064L305.884 90.6582V91H298.047ZM318.433 55.4531V91H310.498V55.4531H318.433Z" fill="white"/>
<rect x="4.15002" y="46" width="4.6" height="16" fill="white"/>
<rect x="4" y="46" width="5" height="16" fill="white"/>
<rect x="4.15002" y="83" width="4.6" height="16" fill="white"/>
<path d="M4.09998 112L92.6 92.0412H4.09998V112Z" fill="white"/>
<path d="M8 46H312L378 0L8 52V46Z" fill="white"/>
<path d="M264.336 36.1396C264.336 36.0127 264.316 35.8988 264.277 35.7979C264.242 35.6937 264.173 35.5993 264.072 35.5146C263.971 35.4268 263.83 35.3405 263.647 35.2559C263.465 35.1712 263.229 35.0833 262.939 34.9922C262.617 34.888 262.311 34.7708 262.021 34.6406C261.735 34.5104 261.481 34.359 261.26 34.1865C261.042 34.0107 260.869 33.8073 260.742 33.5762C260.618 33.3451 260.557 33.0765 260.557 32.7705C260.557 32.4743 260.622 32.2057 260.752 31.9648C260.882 31.7207 261.064 31.5124 261.299 31.3398C261.533 31.1641 261.81 31.029 262.129 30.9346C262.451 30.8402 262.804 30.793 263.188 30.793C263.713 30.793 264.17 30.8874 264.561 31.0762C264.951 31.265 265.254 31.5238 265.469 31.8525C265.687 32.1813 265.796 32.5573 265.796 32.9805H264.341C264.341 32.7721 264.297 32.5898 264.209 32.4336C264.124 32.2741 263.994 32.1488 263.818 32.0576C263.646 31.9665 263.428 31.9209 263.164 31.9209C262.91 31.9209 262.699 31.96 262.529 32.0381C262.36 32.113 262.233 32.2155 262.148 32.3457C262.064 32.4727 262.021 32.6159 262.021 32.7754C262.021 32.8958 262.051 33.0049 262.109 33.1025C262.171 33.2002 262.262 33.2913 262.383 33.376C262.503 33.4606 262.651 33.5404 262.827 33.6152C263.003 33.6901 263.206 33.7633 263.438 33.835C263.825 33.9521 264.165 34.084 264.458 34.2305C264.754 34.377 265.002 34.5413 265.2 34.7236C265.399 34.9059 265.549 35.1126 265.649 35.3438C265.75 35.5749 265.801 35.8369 265.801 36.1299C265.801 36.4391 265.741 36.7158 265.62 36.96C265.5 37.2041 265.326 37.4108 265.098 37.5801C264.87 37.7493 264.598 37.8779 264.282 37.9658C263.966 38.0537 263.613 38.0977 263.223 38.0977C262.871 38.0977 262.524 38.0521 262.183 37.9609C261.841 37.8665 261.53 37.7249 261.25 37.5361C260.973 37.3473 260.752 37.1064 260.586 36.8135C260.42 36.5205 260.337 36.1738 260.337 35.7734H261.807C261.807 35.9948 261.841 36.182 261.909 36.335C261.978 36.488 262.074 36.6117 262.197 36.7061C262.324 36.8005 262.474 36.8688 262.646 36.9111C262.822 36.9535 263.014 36.9746 263.223 36.9746C263.477 36.9746 263.685 36.9388 263.848 36.8672C264.014 36.7956 264.136 36.6963 264.214 36.5693C264.295 36.4424 264.336 36.2992 264.336 36.1396ZM268.354 30.8906V38H266.895V30.8906H268.354ZM275.513 30.8906V38H274.048L271.191 33.2344V38H269.727V30.8906H271.191L274.053 35.6611V30.8906H275.513ZM280.908 35.6416H282.368C282.339 36.1201 282.207 36.5449 281.973 36.916C281.742 37.2871 281.418 37.5768 281.001 37.7852C280.588 37.9935 280.09 38.0977 279.507 38.0977C279.051 38.0977 278.643 38.0195 278.281 37.8633C277.92 37.7038 277.611 37.4759 277.354 37.1797C277.1 36.8835 276.906 36.5254 276.772 36.1055C276.639 35.6855 276.572 35.2152 276.572 34.6943V34.2012C276.572 33.6803 276.641 33.21 276.777 32.79C276.917 32.3669 277.116 32.0072 277.373 31.7109C277.633 31.4147 277.944 31.1868 278.306 31.0273C278.667 30.8678 279.071 30.7881 279.517 30.7881C280.109 30.7881 280.609 30.8955 281.016 31.1104C281.426 31.3252 281.743 31.6214 281.968 31.999C282.196 32.3766 282.332 32.8063 282.378 33.2881H280.913C280.897 33.0016 280.84 32.7591 280.742 32.5605C280.645 32.3587 280.496 32.2074 280.298 32.1064C280.103 32.0023 279.842 31.9502 279.517 31.9502C279.272 31.9502 279.059 31.9958 278.877 32.0869C278.695 32.1781 278.542 32.3164 278.418 32.502C278.294 32.6875 278.201 32.9219 278.14 33.2051C278.081 33.485 278.052 33.8138 278.052 34.1914V34.6943C278.052 35.0622 278.079 35.3861 278.135 35.666C278.19 35.9427 278.275 36.1771 278.389 36.3691C278.506 36.5579 278.656 36.7012 278.838 36.7988C279.023 36.8932 279.246 36.9404 279.507 36.9404C279.813 36.9404 280.065 36.8916 280.264 36.7939C280.462 36.6963 280.614 36.5514 280.718 36.3594C280.825 36.1673 280.889 35.9281 280.908 35.6416ZM288.101 36.8574V38H284.316V36.8574H288.101ZM284.795 30.8906V38H283.33V30.8906H284.795ZM287.607 33.7861V34.8994H284.316V33.7861H287.607ZM288.096 30.8906V32.0381H284.316V30.8906H288.096ZM294.727 30.876V38H293.32V32.4971L291.631 33.0342V31.9258L294.575 30.876H294.727ZM298.037 36.9307H298.13C298.521 36.9307 298.856 36.8835 299.136 36.7891C299.419 36.6914 299.652 36.5514 299.834 36.3691C300.016 36.1868 300.151 35.9639 300.239 35.7002C300.327 35.4333 300.371 35.1305 300.371 34.792V33.4443C300.371 33.1872 300.345 32.9609 300.293 32.7656C300.244 32.5703 300.173 32.4092 300.078 32.2822C299.987 32.152 299.88 32.0544 299.756 31.9893C299.635 31.9242 299.502 31.8916 299.355 31.8916C299.199 31.8916 299.061 31.9307 298.94 32.0088C298.82 32.0837 298.717 32.1862 298.633 32.3164C298.551 32.4466 298.488 32.5964 298.442 32.7656C298.4 32.9316 298.379 33.1058 298.379 33.2881C298.379 33.4704 298.4 33.6445 298.442 33.8105C298.485 33.9733 298.548 34.1182 298.633 34.2451C298.717 34.3688 298.823 34.4681 298.95 34.543C299.077 34.6146 299.227 34.6504 299.399 34.6504C299.565 34.6504 299.714 34.6195 299.844 34.5576C299.977 34.4925 300.09 34.4079 300.181 34.3037C300.275 34.1995 300.347 34.084 300.396 33.957C300.448 33.8301 300.474 33.7015 300.474 33.5713L300.938 33.8252C300.938 34.0531 300.889 34.2777 300.791 34.499C300.693 34.7204 300.557 34.9222 300.381 35.1045C300.208 35.2835 300.008 35.4268 299.78 35.5342C299.552 35.6416 299.308 35.6953 299.048 35.6953C298.716 35.6953 298.421 35.6351 298.164 35.5146C297.907 35.391 297.689 35.2217 297.51 35.0068C297.334 34.7887 297.201 34.5348 297.109 34.2451C297.018 33.9554 296.973 33.6413 296.973 33.3027C296.973 32.9577 297.028 32.6338 297.139 32.3311C297.253 32.0283 297.414 31.7614 297.622 31.5303C297.834 31.2992 298.086 31.1185 298.379 30.9883C298.675 30.8548 299.004 30.7881 299.365 30.7881C299.727 30.7881 300.055 30.8581 300.352 30.998C300.648 31.138 300.902 31.3366 301.113 31.5938C301.325 31.8477 301.488 32.152 301.602 32.5068C301.719 32.8617 301.777 33.2555 301.777 33.6885V34.1768C301.777 34.639 301.727 35.0687 301.626 35.4658C301.528 35.863 301.38 36.2227 301.182 36.5449C300.986 36.8639 300.742 37.1374 300.449 37.3652C300.16 37.5931 299.823 37.7673 299.438 37.8877C299.054 38.0081 298.625 38.0684 298.149 38.0684H298.037V36.9307ZM307.612 30.8906V31.6475L304.863 38H303.379L306.128 31.9893H302.588V30.8906H307.612ZM312.153 30.8174H312.358V31.9404H312.275C311.904 31.9404 311.574 31.9958 311.284 32.1064C310.994 32.2171 310.749 32.375 310.547 32.5801C310.348 32.7819 310.195 33.026 310.088 33.3125C309.984 33.599 309.932 33.9196 309.932 34.2744V35.4561C309.932 35.71 309.956 35.9346 310.005 36.1299C310.057 36.3219 310.13 36.4831 310.225 36.6133C310.322 36.7402 310.436 36.8363 310.566 36.9014C310.697 36.9632 310.843 36.9941 311.006 36.9941C311.159 36.9941 311.297 36.9616 311.421 36.8965C311.548 36.8314 311.655 36.7402 311.743 36.623C311.834 36.5026 311.903 36.3626 311.948 36.2031C311.997 36.0404 312.021 35.863 312.021 35.6709C312.021 35.4788 311.997 35.3014 311.948 35.1387C311.903 34.9759 311.834 34.8359 311.743 34.7188C311.652 34.5983 311.541 34.5055 311.411 34.4404C311.281 34.3753 311.134 34.3428 310.972 34.3428C310.75 34.3428 310.555 34.3949 310.386 34.499C310.22 34.5999 310.09 34.7301 309.995 34.8896C309.901 35.0492 309.85 35.2168 309.844 35.3926L309.419 35.1191C309.429 34.8685 309.481 34.6309 309.575 34.4062C309.673 34.1816 309.806 33.9831 309.976 33.8105C310.148 33.6348 310.355 33.498 310.596 33.4004C310.837 33.2995 311.108 33.249 311.411 33.249C311.743 33.249 312.035 33.3125 312.285 33.4395C312.539 33.5664 312.751 33.7406 312.92 33.9619C313.089 34.1833 313.216 34.4388 313.301 34.7285C313.385 35.0182 313.428 35.3275 313.428 35.6562C313.428 36.0013 313.371 36.3219 313.257 36.6182C313.146 36.9144 312.985 37.1732 312.773 37.3945C312.565 37.6159 312.314 37.7884 312.021 37.9121C311.729 38.0358 311.4 38.0977 311.035 38.0977C310.658 38.0977 310.314 38.0293 310.005 37.8926C309.699 37.7526 309.435 37.5573 309.214 37.3066C308.993 37.056 308.822 36.7581 308.701 36.4131C308.584 36.068 308.525 35.6904 308.525 35.2803V34.7334C308.525 34.1605 308.608 33.6364 308.774 33.1611C308.944 32.6826 309.186 32.2692 309.502 31.9209C309.818 31.5693 310.199 31.2975 310.645 31.1055C311.09 30.9134 311.593 30.8174 312.153 30.8174Z" fill="black"/>
</svg>
